<?xml version="1.0" encoding="UTF-8" standalone="no"?>
<!DOCTYPE svg PUBLIC "-//W3C//DTD SVG 1.1//EN" "http://www.w3.org/Graphics/SVG/1.1/DTD/svg11.dtd">
<svg width="100%" height="100%" viewBox="0 0 3290 740" version="1.1" xmlns="http://www.w3.org/2000/svg" xmlns:xlink="http://www.w3.org/1999/xlink" xml:space="preserve" xmlns:serif="http://www.serif.com/" style="fill-rule:evenodd;clip-rule:evenodd;stroke-linejoin:round;stroke-miterlimit:1.5;">
    <g transform="matrix(1,0,0,1,-1625.34,-158.652)">
        <g transform="matrix(2.04573,0,0,1.08225,-1629.97,199.892)">
            <g transform="matrix(0.883258,0,0,0.516929,1673.27,-11.0835)">
                <rect x="-92.846" y="-52.275" width="1820.44" height="1322.64" style="fill:rgb(30,33,41);"/>
            </g>
        </g>
        <g transform="matrix(1.09677,0,0,1.09677,-310.624,260.943)">
            <g transform="matrix(453.082,0,0,453.082,4693.51,356.024)">
            </g>
            <text x="2659.95px" y="356.024px" style="font-family:'Audiowide-Regular', 'Audiowide';font-size:453.082px;fill:white;">net<tspan x="3525.63px 3838.45px 4084.68px " y="356.024px 356.024px 356.024px ">gre</tspan>p</text>
        </g>
        <g transform="matrix(0.833333,0,0,0.873238,1648,193.955)">
            <path d="M540,200C540,200 596.298,157.423 628.224,143.09C661.557,128.126 740,110.211 740,110.211C740,110.211 784.143,371.187 829.372,420C839.389,430.811 892.634,427.152 948.957,450.284C992.684,468.243 1020,480 1020,480C1020,480 861.93,625.034 540,630C194.855,635.325 60,487.466 60,487.466C60,487.466 102.292,464.969 148.665,449.466C183.539,437.808 221.833,435.414 240,420C295.08,373.265 320,109.737 320,109.737C320,109.737 401.155,125.062 437.822,140.106C474.347,155.092 540,200 540,200Z" style="fill:rgb(40,143,240);"/>
        </g>
        <g transform="matrix(0.833333,0,0,0.873238,1648,193.955)">
            <path d="M524.08,203.951C497.751,228.969 490.352,278.955 488.391,312.117C486.504,344.047 515.665,429.139 495.641,467.489C468.284,519.883 416.694,574.24 225.553,581.591C206.384,582.328 61.051,498.389 61.051,498.389L128.438,460.055L236.718,424.232L265.079,386.994L296.199,263.642L325.55,113.914C325.55,113.914 555.85,173.764 524.08,203.951Z" style="fill:rgb(14,73,128);"/>
        </g>
        <g transform="matrix(0.833333,0,0,0.873238,1648,193.955)">
            <path d="M260,400C260,400 365.465,457.397 539.054,460C712.643,462.603 820,400 820,400" style="fill:none;stroke:rgb(0,31,60);stroke-width:103.1px;"/>
        </g>
        <g transform="matrix(0.833333,0,0,0.873238,1648,193.955)">
            <path d="M540,200C540,200 596.298,157.423 628.224,143.09C661.557,128.126 740,110.211 740,110.211C740,110.211 784.143,371.187 829.372,420C839.389,430.811 892.634,427.152 948.957,450.284C992.684,468.243 1020,480 1020,480C1020,480 861.93,625.034 540,630C194.855,635.325 60,487.466 60,487.466C60,487.466 102.292,464.969 148.665,449.466C183.539,437.808 221.833,435.414 240,420C295.08,373.265 320,109.737 320,109.737C320,109.737 401.155,125.062 437.822,140.106C474.347,155.092 540,200 540,200Z" style="fill:none;stroke:rgb(7,50,90);stroke-width:39.84px;stroke-linecap:round;"/>
        </g>
    </g>
</svg>
