<?xml version="1.0" encoding="UTF-8" standalone="no"?>
<!DOCTYPE svg PUBLIC "-//W3C//DTD SVG 1.1//EN" "http://www.w3.org/Graphics/SVG/1.1/DTD/svg11.dtd">
<svg width="100%" height="100%" viewBox="0 0 3290 740" version="1.1" xmlns="http://www.w3.org/2000/svg" xmlns:xlink="http://www.w3.org/1999/xlink" xml:space="preserve" xmlns:serif="http://www.serif.com/" style="fill-rule:evenodd;clip-rule:evenodd;stroke-linejoin:round;stroke-miterlimit:1.5;">
    <g transform="matrix(1,0,0,1,-1625.34,-158.652)">
        <g transform="matrix(2.04573,0,0,1.08225,-1629.97,199.892)">
            <g transform="matrix(0.883258,0,0,0.516929,1673.27,-11.0835)">
                <rect x="-92.846" y="-52.275" width="1820.44" height="1322.64" style="fill:rgb(30,33,41);"/>
            </g>
        </g>
        <g transform="matrix(1.09677,0,0,1.09677,-310.624,260.943)">
            <g transform="matrix(453.082,0,0,453.082,2659.95,356.024)">
                <path d="M0.645,-0L0.518,-0L0.518,-0.293C0.518,-0.31 0.515,-0.324 0.509,-0.338C0.503,-0.351 0.496,-0.362 0.486,-0.372C0.476,-0.381 0.465,-0.388 0.451,-0.393C0.438,-0.398 0.424,-0.401 0.409,-0.401L0.187,-0.401L0.187,-0L0.06,-0L0.06,-0.465C0.06,-0.474 0.061,-0.482 0.064,-0.49C0.068,-0.497 0.072,-0.504 0.078,-0.51C0.084,-0.515 0.091,-0.52 0.099,-0.523C0.106,-0.526 0.115,-0.528 0.124,-0.528L0.41,-0.528C0.426,-0.528 0.442,-0.526 0.46,-0.522C0.478,-0.519 0.496,-0.513 0.513,-0.505C0.53,-0.497 0.547,-0.487 0.563,-0.475C0.579,-0.463 0.593,-0.448 0.605,-0.43C0.617,-0.413 0.627,-0.393 0.634,-0.37C0.641,-0.347 0.645,-0.322 0.645,-0.293L0.645,-0Z" style="fill:white;fill-rule:nonzero;"/>
            </g>
            <g transform="matrix(453.082,0,0,453.082,2975.42,356.024)">
                <path d="M0.627,-0.353C0.627,-0.335 0.624,-0.316 0.618,-0.296C0.612,-0.276 0.602,-0.257 0.588,-0.24C0.574,-0.222 0.556,-0.208 0.534,-0.196C0.512,-0.184 0.485,-0.178 0.453,-0.178L0.224,-0.178L0.224,-0.299L0.453,-0.299C0.47,-0.299 0.483,-0.304 0.493,-0.315C0.502,-0.325 0.507,-0.338 0.507,-0.354C0.507,-0.371 0.502,-0.384 0.491,-0.393C0.48,-0.403 0.468,-0.407 0.453,-0.407L0.224,-0.407C0.206,-0.407 0.193,-0.402 0.184,-0.391C0.174,-0.381 0.169,-0.368 0.169,-0.352L0.169,-0.175C0.169,-0.158 0.175,-0.145 0.185,-0.135C0.196,-0.126 0.209,-0.121 0.225,-0.121L0.453,-0.121L0.453,-0L0.224,-0C0.206,-0 0.187,-0.003 0.167,-0.009C0.146,-0.015 0.128,-0.025 0.11,-0.039C0.093,-0.053 0.078,-0.071 0.066,-0.094C0.055,-0.116 0.049,-0.143 0.049,-0.175L0.049,-0.353C0.049,-0.371 0.052,-0.39 0.058,-0.41C0.064,-0.43 0.074,-0.449 0.088,-0.467C0.102,-0.484 0.12,-0.499 0.142,-0.51C0.165,-0.522 0.192,-0.528 0.224,-0.528L0.453,-0.528C0.47,-0.528 0.489,-0.525 0.51,-0.519C0.53,-0.512 0.549,-0.502 0.566,-0.489C0.584,-0.475 0.598,-0.457 0.61,-0.434C0.622,-0.412 0.627,-0.385 0.627,-0.353Z" style="fill:white;fill-rule:nonzero;"/>
            </g>
            <g transform="matrix(453.082,0,0,453.082,3271.43,356.024)">
                <path d="M0.54,-0.401L0.318,-0.401L0.318,-0L0.189,-0L0.189,-0.401L0.024,-0.401L0.024,-0.528L0.189,-0.528L0.189,-0.7L0.318,-0.7L0.318,-0.528L0.54,-0.528L0.54,-0.401Z" style="fill:white;fill-rule:nonzero;"/>
            </g>
            <g transform="matrix(453.082,0,0,453.082,3525.63,356.024)">
                <path d="M0.634,0.051C0.634,0.073 0.631,0.092 0.625,0.11C0.62,0.127 0.613,0.142 0.604,0.156C0.594,0.169 0.584,0.18 0.572,0.189C0.56,0.198 0.547,0.206 0.534,0.212C0.521,0.218 0.507,0.222 0.494,0.225C0.48,0.228 0.468,0.229 0.456,0.229L0.227,0.229L0.227,0.102L0.456,0.102C0.473,0.102 0.486,0.098 0.494,0.089C0.503,0.08 0.507,0.067 0.507,0.051L0.507,-0.35C0.507,-0.367 0.503,-0.379 0.494,-0.388C0.486,-0.397 0.473,-0.401 0.456,-0.401L0.227,-0.401C0.211,-0.401 0.199,-0.396 0.189,-0.386C0.18,-0.377 0.176,-0.365 0.176,-0.35L0.176,-0.178C0.176,-0.162 0.18,-0.149 0.189,-0.14C0.198,-0.131 0.211,-0.127 0.228,-0.127L0.456,-0.127L0.456,-0L0.227,-0C0.215,-0 0.202,-0.001 0.188,-0.004C0.175,-0.007 0.162,-0.011 0.149,-0.017C0.135,-0.023 0.123,-0.031 0.111,-0.04C0.099,-0.049 0.088,-0.06 0.079,-0.073C0.07,-0.087 0.063,-0.102 0.057,-0.119C0.052,-0.137 0.049,-0.156 0.049,-0.178L0.049,-0.35C0.049,-0.362 0.05,-0.375 0.053,-0.388C0.056,-0.402 0.06,-0.415 0.066,-0.428C0.072,-0.441 0.079,-0.454 0.089,-0.466C0.098,-0.478 0.109,-0.488 0.122,-0.498C0.135,-0.507 0.151,-0.514 0.168,-0.52C0.185,-0.525 0.205,-0.528 0.227,-0.528L0.456,-0.528C0.468,-0.528 0.48,-0.526 0.494,-0.524C0.507,-0.521 0.521,-0.517 0.534,-0.511C0.547,-0.505 0.56,-0.497 0.572,-0.488C0.584,-0.479 0.594,-0.468 0.604,-0.454C0.613,-0.441 0.62,-0.426 0.625,-0.409C0.631,-0.391 0.634,-0.372 0.634,-0.35L0.634,0.051Z" style="fill:white;fill-rule:nonzero;"/>
            </g>
            <g transform="matrix(453.082,0,0,453.082,3838.45,356.024)">
                <path d="M0.521,-0.401L0.236,-0.401C0.219,-0.401 0.206,-0.397 0.197,-0.388C0.188,-0.379 0.184,-0.367 0.184,-0.35L0.184,-0L0.057,-0L0.057,-0.35C0.057,-0.372 0.059,-0.391 0.065,-0.409C0.07,-0.426 0.078,-0.441 0.087,-0.454C0.096,-0.468 0.107,-0.479 0.119,-0.488C0.131,-0.497 0.144,-0.505 0.157,-0.511C0.17,-0.517 0.184,-0.521 0.197,-0.524C0.211,-0.526 0.223,-0.528 0.235,-0.528L0.521,-0.528L0.521,-0.401Z" style="fill:white;fill-rule:nonzero;"/>
            </g>
            <g transform="matrix(453.082,0,0,453.082,4084.68,356.024)">
                <path d="M0.627,-0.353C0.627,-0.335 0.624,-0.316 0.618,-0.296C0.612,-0.276 0.602,-0.257 0.588,-0.24C0.574,-0.222 0.556,-0.208 0.534,-0.196C0.512,-0.184 0.485,-0.178 0.453,-0.178L0.224,-0.178L0.224,-0.299L0.453,-0.299C0.47,-0.299 0.483,-0.304 0.493,-0.315C0.502,-0.325 0.507,-0.338 0.507,-0.354C0.507,-0.371 0.502,-0.384 0.491,-0.393C0.48,-0.403 0.468,-0.407 0.453,-0.407L0.224,-0.407C0.206,-0.407 0.193,-0.402 0.184,-0.391C0.174,-0.381 0.169,-0.368 0.169,-0.352L0.169,-0.175C0.169,-0.158 0.175,-0.145 0.185,-0.135C0.196,-0.126 0.209,-0.121 0.225,-0.121L0.453,-0.121L0.453,-0L0.224,-0C0.206,-0 0.187,-0.003 0.167,-0.009C0.146,-0.015 0.128,-0.025 0.11,-0.039C0.093,-0.053 0.078,-0.071 0.066,-0.094C0.055,-0.116 0.049,-0.143 0.049,-0.175L0.049,-0.353C0.049,-0.371 0.052,-0.39 0.058,-0.41C0.064,-0.43 0.074,-0.449 0.088,-0.467C0.102,-0.484 0.12,-0.499 0.142,-0.51C0.165,-0.522 0.192,-0.528 0.224,-0.528L0.453,-0.528C0.47,-0.528 0.489,-0.525 0.51,-0.519C0.53,-0.512 0.549,-0.502 0.566,-0.489C0.584,-0.475 0.598,-0.457 0.61,-0.434C0.622,-0.412 0.627,-0.385 0.627,-0.353Z" style="fill:white;fill-rule:nonzero;"/>
            </g>
            <g transform="matrix(453.082,0,0,453.082,4380.69,356.024)">
                <path d="M0.642,-0.178C0.642,-0.156 0.639,-0.137 0.633,-0.119C0.628,-0.102 0.62,-0.087 0.611,-0.073C0.602,-0.06 0.592,-0.049 0.58,-0.04C0.568,-0.031 0.555,-0.023 0.542,-0.017C0.529,-0.011 0.515,-0.007 0.502,-0.004C0.489,-0.001 0.476,-0 0.464,-0L0.235,-0L0.235,-0.127L0.464,-0.127C0.481,-0.127 0.493,-0.131 0.502,-0.14C0.51,-0.149 0.515,-0.162 0.515,-0.178L0.515,-0.349C0.515,-0.367 0.51,-0.38 0.502,-0.388C0.493,-0.397 0.48,-0.401 0.464,-0.401L0.236,-0.401C0.219,-0.401 0.206,-0.397 0.197,-0.388C0.188,-0.379 0.184,-0.367 0.184,-0.35L0.184,0.165L0.057,0.165L0.057,-0.35C0.057,-0.372 0.059,-0.391 0.065,-0.409C0.07,-0.426 0.078,-0.441 0.087,-0.454C0.096,-0.468 0.107,-0.479 0.119,-0.488C0.131,-0.497 0.144,-0.505 0.157,-0.511C0.17,-0.517 0.184,-0.521 0.197,-0.524C0.211,-0.526 0.223,-0.528 0.235,-0.528L0.464,-0.528C0.486,-0.528 0.505,-0.525 0.522,-0.52C0.54,-0.514 0.555,-0.507 0.568,-0.498C0.581,-0.488 0.593,-0.478 0.602,-0.466C0.611,-0.454 0.619,-0.441 0.625,-0.428C0.63,-0.415 0.635,-0.402 0.637,-0.388C0.64,-0.375 0.642,-0.362 0.642,-0.35L0.642,-0.178Z" style="fill:white;fill-rule:nonzero;"/>
            </g>
        </g>
        <g transform="matrix(0.833333,0,0,0.873238,1648,193.955)">
            <path d="M540,200C540,200 596.298,157.423 628.224,143.09C661.557,128.126 740,110.211 740,110.211C740,110.211 784.143,371.187 829.372,420C839.389,430.811 892.634,427.152 948.957,450.284C992.684,468.243 1020,480 1020,480C1020,480 861.93,625.034 540,630C194.855,635.325 60,487.466 60,487.466C60,487.466 102.292,464.969 148.665,449.466C183.539,437.808 221.833,435.414 240,420C295.08,373.265 320,109.737 320,109.737C320,109.737 401.155,125.062 437.822,140.106C474.347,155.092 540,200 540,200Z" style="fill:rgb(40,143,240);"/>
        </g>
        <g transform="matrix(0.833333,0,0,0.873238,1648,193.955)">
            <path d="M524.08,203.951C497.751,228.969 490.352,278.955 488.391,312.117C486.504,344.047 515.665,429.139 495.641,467.489C468.284,519.883 416.694,574.24 225.553,581.591C206.384,582.328 61.051,498.389 61.051,498.389L128.438,460.055L236.718,424.232L265.079,386.994L296.199,263.642L325.55,113.914C325.55,113.914 555.85,173.764 524.08,203.951Z" style="fill:rgb(14,73,128);"/>
        </g>
        <g transform="matrix(0.833333,0,0,0.873238,1648,193.955)">
            <path d="M260,400C260,400 365.465,457.397 539.054,460C712.643,462.603 820,400 820,400" style="fill:none;stroke:rgb(0,31,60);stroke-width:103.1px;"/>
        </g>
        <g transform="matrix(0.833333,0,0,0.873238,1648,193.955)">
            <path d="M540,200C540,200 596.298,157.423 628.224,143.09C661.557,128.126 740,110.211 740,110.211C740,110.211 784.143,371.187 829.372,420C839.389,430.811 892.634,427.152 948.957,450.284C992.684,468.243 1020,480 1020,480C1020,480 861.93,625.034 540,630C194.855,635.325 60,487.466 60,487.466C60,487.466 102.292,464.969 148.665,449.466C183.539,437.808 221.833,435.414 240,420C295.08,373.265 320,109.737 320,109.737C320,109.737 401.155,125.062 437.822,140.106C474.347,155.092 540,200 540,200Z" style="fill:none;stroke:rgb(7,50,90);stroke-width:39.84px;stroke-linecap:round;"/>
        </g>
    </g>
</svg>
